<?xml version="1.0" encoding="utf-8"?>
<!-- Generator: Adobe Illustrator 27.0.0, SVG Export Plug-In . SVG Version: 6.00 Build 0)  -->
<svg version="1.1"
	 id="svg2" xmlns:dc="http://purl.org/dc/elements/1.1/" xmlns:sodipodi="http://sodipodi.sourceforge.net/DTD/sodipodi-0.dtd" xmlns:rdf="http://www.w3.org/1999/02/22-rdf-syntax-ns#" xmlns:cc="http://creativecommons.org/ns#" xmlns:svg="http://www.w3.org/2000/svg" xmlns:inkscape="http://www.inkscape.org/namespaces/inkscape" inkscape:version="0.48.4 r9939" sodipodi:docname="Goodreads_logo paths.svg"
	 xmlns="http://www.w3.org/2000/svg" xmlns:xlink="http://www.w3.org/1999/xlink" x="0px" y="0px" viewBox="0 0 303.5 65.5"
	 style="enable-background:new 0 0 303.5 65.5;" xml:space="preserve">
<style type="text/css">
	.st0{fill:#FFFFFF;}
</style>
<sodipodi:namedview  bordercolor="#666666" borderopacity="1" fit-margin-bottom="0" fit-margin-left="0" fit-margin-right="0" fit-margin-top="0" gridtolerance="10" guidetolerance="10" id="namedview4" inkscape:current-layer="svg2" inkscape:cx="450.36575" inkscape:cy="21.100665" inkscape:pageopacity="0" inkscape:pageshadow="2" inkscape:window-height="705" inkscape:window-maximized="1" inkscape:window-width="1366" inkscape:window-x="-8" inkscape:window-y="-8" inkscape:zoom="1" objecttolerance="10" pagecolor="#ffffff" showgrid="false">
	</sodipodi:namedview>
<g id="text3009" transform="matrix(0.99371268,0,0,1.0063271,-0.82722027,-0.06341092)">
	<path id="path3063" inkscape:connector-curvature="0" class="st0" d="M32.4,50.2c0,4.9-1.3,8.6-4,11.2c-2.7,2.5-6.5,3.8-11.4,3.8
		c-4,0-7.3-0.9-9.8-2.8c-2.8-2.1-4.2-5.1-4.3-9h1.4c0.1,3.5,1.4,6.1,3.9,7.9c2.2,1.6,5.1,2.4,8.7,2.4c9.4,0,14.1-4.5,14.1-13.5V38.8
		h-0.1c-0.7,3.2-2.5,5.7-5.3,7.6c-2.8,1.9-5.9,2.9-9.3,2.9c-4.9,0-8.8-1.8-11.6-5.4c-2.5-3.3-3.8-7.4-3.8-12.5c0-5.2,1.3-9.5,4-12.8
		c2.9-3.7,6.9-5.5,12-5.5c3.3,0,6.3,1,8.9,3c2.6,2,4.3,4.6,5.1,7.8H31V14h1.4V50.2z M30.9,31.4c0-4.6-1.2-8.4-3.5-11.6
		c-2.6-3.5-6.2-5.3-10.6-5.3c-4.6,0-8.2,1.7-10.9,5.1c-2.4,3.1-3.6,7-3.6,11.7c0,4.7,1.1,8.5,3.4,11.5c2.5,3.4,6.1,5,10.5,5
		c4.6,0,8.2-1.6,11-4.9C29.6,40,30.9,36.1,30.9,31.4z"/>
	<path id="path3065" inkscape:connector-curvature="0" class="st0" d="M69.3,32.7c0,5.4-1.4,9.9-4.3,13.5c-3.1,4-7.2,6.1-12.5,6.1
		c-5.2,0-9.3-2-12.5-6.1C37.4,42.5,36,38,36,32.7c0-5.3,1.4-9.8,4.3-13.5c3.1-4,7.3-6,12.5-6c5.2,0,9.3,2,12.4,6.1
		C67.9,22.8,69.3,27.3,69.3,32.7z M67.9,32.7c0-4.9-1.3-9.1-3.8-12.5c-2.8-3.7-6.6-5.6-11.4-5.6c-4.8,0-8.6,1.9-11.4,5.6
		c-2.6,3.4-3.9,7.5-3.9,12.5c0,5,1.3,9.2,3.8,12.5c2.8,3.7,6.7,5.6,11.5,5.6c4.8,0,8.6-1.9,11.4-5.6C66.6,41.8,67.9,37.6,67.9,32.7z
		"/>
	<path id="path3067" inkscape:connector-curvature="0" class="st0" d="M105.5,32.7c0,5.4-1.4,9.9-4.3,13.5c-3.1,4-7.2,6.1-12.5,6.1
		c-5.2,0-9.3-2-12.5-6.1c-2.8-3.7-4.2-8.2-4.2-13.5c0-5.3,1.4-9.8,4.3-13.5c3.1-4,7.3-6,12.5-6c5.2,0,9.3,2,12.4,6.1
		C104.1,22.8,105.5,27.3,105.5,32.7z M104,32.7c0-4.9-1.3-9.1-3.8-12.5c-2.8-3.7-6.6-5.6-11.4-5.6c-4.8,0-8.6,1.9-11.4,5.6
		c-2.6,3.4-3.9,7.5-3.9,12.5c0,5,1.3,9.2,3.8,12.5c2.8,3.7,6.7,5.6,11.5,5.6c4.8,0,8.6-1.9,11.4-5.6C102.8,41.8,104,37.6,104,32.7z"
		/>
	<path id="path3069" inkscape:connector-curvature="0" sodipodi:nodetypes="ccccsscsccccccccccccscscc" class="st0" d="M139,51.4
		h-1.4V40.9h-0.1c-1,3.4-2.8,6.1-5.5,8.2c-2.7,2.1-5.8,3.1-9.4,3.1c-5.1,0-9.1-2-12-6.1c-2.5-3.6-3.8-8.1-3.8-13.4
		c0-5.2,1.3-9.7,3.9-13.4c2.9-4.1,6.8-5.8,11.9-5.8c3.7,0,6.9,1,9.5,3c2.6,2,4.4,4.8,5.3,8.3h0.1V0.1h1.4V51.4z M137.6,32.7
		c0-5.2-1.2-9.4-3.5-12.6c-2.6-3.7-6.5-5.5-11.5-5.5c-4.7,0-8.3,1.9-10.9,5.8c-2.3,3.4-3.5,7.5-3.5,12.4c0,4.9,1.1,9.1,3.4,12.4
		c2.6,3.8,6.2,5.7,11,5.7c4.7,0,8.5-1.9,11.2-5.7C136.3,41.8,137.6,37.6,137.6,32.7z"/>
	<path id="path3071" inkscape:connector-curvature="0" sodipodi:nodetypes="ccccssccsscscc" class="st0" d="M146.5,51.4V14h4.9v7.5
		c1.5-2.7,2.3-4.2,3.6-5c1.2-0.8,2.8-2.1,4.2-2.7c1.8-0.7,4.4-1.5,6.5-0.4l0.1,5.3c-1.5-0.9-5.2,0.2-6.9,1c-1.3,0.6-2.8,1.4-3.7,2.4
		c-1,1.2-2,1.8-2.4,3.3c-0.7,2.3-1,3.8-1,6.4v19.6L146.5,51.4z"/>
	<path id="path3073" inkscape:connector-curvature="0" class="st0" d="M169.6,29.9h23.9c-0.3-3.6-1.2-6.3-2.7-8.1
		c-2.3-2.8-5.3-4.2-9-4.2c-3.3,0-6.1,1.1-8.4,3.3C171.1,23.2,169.9,26.2,169.6,29.9z M192.8,39.5l6-0.1c-1,3.8-3.2,7.6-6,9.7
		c-2.8,2.1-6.4,3.2-10.7,3.2c-5.5,0-9.8-1.7-13-5c-3.2-3.4-4.8-8.1-4.8-14.2c0-6.3,1.6-11.2,4.9-14.6c3.2-3.5,7.4-5.2,12.6-5.2
		c5,0,9.1,1.7,12.2,5.1c3.2,3.4,4.7,8.2,4.7,14.4c0,0.4,0,0.9,0,1.7h-29.2c0.2,4.1,1.6,8.1,3.7,10.3c2.1,2.2,5.9,3.3,9,3.3
		c2.3,0,5.2-1.4,6.8-2.6C190.6,44.1,191.9,42.1,192.8,39.5L192.8,39.5z"/>
	
		<path id="path3075" inkscape:connector-curvature="0" sodipodi:nodetypes="csssssccccccccccsccccccscccscccccscssscc" class="st0" d="
		M226.4,46.8c-2.3,2-4.6,3.4-6.8,4.2c-2.2,0.8-4.5,1.2-7,1.2c-4.1,0-7.3-1-9.5-3c-2.2-2-3.3-4.6-3.3-7.7c0-1.8,0.4-3.5,1.2-5
		c0.8-1.5,1.9-2.7,3.3-3.6c1.3-0.9,2.9-1.6,4.6-2.1c1.2-0.3,3.1-0.6,5.6-0.9c5.1-0.6,8.9-1.3,11.3-2.2c0-0.9,0-1.4,0-1.7
		c0-2.6-0.6-5.5-1.8-6.5c-1.6-1.4-4-2.1-7.2-2.1c-3,0-5.2,0.5-6.6,1.6c-1.4,1-3.2,3-3.1,6.6l-5.7,0c0.6-2.7,1-5.6,2.3-7.2
		c1.3-1.6,3.2-2.9,5.6-3.8c2.4-0.9,5.3-1.3,8.5-1.3c3.2,0,5.3,0.4,7.3,1.1c2,0.8,3.3,1.9,4.3,3c0.9,1.1,1.4,2.4,1.8,4.1
		c0.2,1.1,0.3,3,0.3,5.8v8.4c0,5.9-0.2,7.7,0.1,9.2c0.3,1.6,1.8,2.2,3.9,1.9l0.1,4.8c0,0-4.9,0.3-6.6-0.4
		C227.5,50.8,226.6,48.5,226.4,46.8L226.4,46.8z M225.9,32c-2.3,0.9-5,0.8-9.6,1.8c-3,0.7-4.2,0.9-5.3,1.3c-1.1,0.5-3.2,0.7-4.7,2.5
		c-1.2,1.4-1,2.9-1,4.5c0,1.7,1.4,3.1,2.7,4.2c1.3,1.1,3.8,1,6.2,1c2.4,0,4.6-0.5,6.5-1.6c1.9-1.1,3.3-2.5,4.2-4.4
		c0.7-1.4,1-3.5,1-6.3V32z"/>
	<path id="path3077" inkscape:connector-curvature="0" sodipodi:nodetypes="ccsssssccccccccsssscccss" class="st0" d="M266.2,51.7
		v-4.7c-2.4,3.7-9.1,5.6-13.7,5.6c-3,0-5.7-0.8-8.2-2.5c-2.5-1.6-4.4-3.9-5.8-6.9c-1.4-2.9-2.1-6.3-2.1-10.2c0-3.7,0.6-7.1,1.9-10.2
		c1.2-3,3.1-5.4,5.6-7c2.5-1.6,5.3-2.4,8.3-2.4c2.3,0,7.5,0.5,9.2,1.4c1.8,0.9,3.2,2.2,4.3,3.7V0.1h5.5v51.6H266.2z M241.2,33
		c0,4.8,1,8.4,3,10.7c2,2.4,6.6,4.5,9.3,4.5c2.8,0,7.9-2.1,9.9-4.4c1.9-2.3,2.9-5.7,2.9-10.4c0-5.1-1-8.9-3-11.3
		c-2-2.4-6.6-4.8-9.5-4.8c-2.8,0-7.9,2.3-9.8,4.6C242.2,24.4,241.2,28.1,241.2,33z"/>
	<path id="path3079" inkscape:connector-curvature="0" sodipodi:nodetypes="cccsscccccccccccccccccccccccccsssc" class="st0" d="
		M275.7,39l4.7-0.1c0.4,2.5,1.8,5.2,3.4,6.5c1.6,1.3,4.4,2.2,7.3,2.2c2.9,0,5.5-0.5,6.9-1.7c1.4-1.2,3.2-2.1,3.2-4.6
		c0-1.4-0.8-3.2-2.1-4.1c-0.9-0.6-3.6-1.8-7.1-2.6c-4.6-1.2-7.5-1.5-9.3-2.4c-1.8-0.9-3.7-1.8-4.7-3.4c-0.9-1.5-1.4-3.2-1.4-5
		c0-1.7,0.4-3.2,1.1-4.6c0.8-1.4,1.8-2.6,3.1-3.5c1-0.7,1.8-1.3,3.5-1.8c1.7-0.5,3.5-0.8,5.5-0.8c2.9,0,5.5,0.4,7.7,1.3
		c2.2,0.8,3.9,2,4.9,3.4c1.1,1.4,1.8,4.3,2.2,6.8l-4.7,0c-0.3-1.9-2.1-4.8-3.5-5.9c-1.3-1.1-4.7-1.4-7.2-1.4c-2.9,0-4.3,1.3-5.5,2.2
		c-1.2,1-1.9,2.1-1.9,3.4c0,0.8,0,1.8,0.5,2.4c0.5,0.7,1.7,1.7,2.8,2.2c0.6,0.2,2.8,1.1,5.9,1.9c4.5,1.2,7.5,1.5,9.3,2.3
		c1.8,0.8,3.2,1.9,4.2,3.3c1,1.5,1.5,3.3,1.5,5.4c0,2.1-0.6,4.1-1.8,6c-1.2,1.9-3,3.3-5.3,4.3c-2.3,1-4.9,1.5-7.9,1.5
		c-4.9,0-8.6-1-11.1-3C277.5,47.3,276.4,43,275.7,39L275.7,39z"/>
</g>
</svg>
