<?xml version="1.0" encoding="utf-8"?>
<!-- Generator: Adobe Illustrator 27.0.0, SVG Export Plug-In . SVG Version: 6.00 Build 0)  -->
<svg version="1.1" id="Layer_1" xmlns="http://www.w3.org/2000/svg" xmlns:xlink="http://www.w3.org/1999/xlink" x="0px" y="0px"
	 viewBox="0 0 24 24" style="enable-background:new 0 0 24 24;" xml:space="preserve">
<style type="text/css">
	.st0{fill:#FFFFFF;}
</style>
<path class="st0" d="M22.5,6.5L22.5,6.5c0-0.3-0.1-0.5-0.3-0.7c0,0,0,0,0,0c0,0,0,0-0.1,0c0,0,0,0-0.1,0c0,0,0,0,0,0l-9.6-5.5
	c-0.3-0.2-0.6-0.2-0.9,0L1.9,5.7c0,0,0,0,0,0c0,0,0,0,0,0c0,0,0,0,0,0c-0.1,0-0.1,0.1-0.1,0.1l0,0C1.6,6,1.5,6.2,1.5,6.4l0,0
	c0,0,0,0,0,0v11.1c0,0.3,0.2,0.6,0.5,0.8l9.6,5.5c0,0,0,0,0,0c0.1,0,0.1,0.1,0.2,0.1c0,0,0,0,0,0c0,0,0,0,0.1,0c0,0,0,0,0,0
	c0.1,0,0.1,0,0.2,0c0,0,0,0,0,0c0,0,0,0,0.1,0c0,0,0,0,0,0c0,0,0,0,0.1,0c0,0,0.1,0,0.1,0c0,0,0,0,0,0l9.6-5.5
	c0.3-0.2,0.5-0.5,0.5-0.8L22.5,6.5C22.5,6.5,22.5,6.5,22.5,6.5z M5.3,6.1l6.5-3.8c0.1-0.1,0.3-0.1,0.4,0l6.5,3.8
	c0.2,0.1,0.3,0.4,0.2,0.6c0,0.1-0.1,0.1-0.2,0.2l-6.5,3.8c-0.1,0.1-0.3,0.1-0.4,0L5.3,6.8C5.1,6.7,5,6.4,5.1,6.2
	C5.1,6.2,5.2,6.1,5.3,6.1z M10.9,20.4c0,0.2-0.2,0.4-0.4,0.4c-0.1,0-0.1,0-0.2-0.1L3.7,17c-0.1-0.1-0.2-0.2-0.2-0.4V9.1
	c0-0.2,0.2-0.4,0.4-0.4c0.1,0,0.1,0,0.2,0.1l6.5,3.8c0.1,0.1,0.2,0.2,0.2,0.4L10.9,20.4L10.9,20.4z M20.5,16.7
	c0,0.1-0.1,0.3-0.2,0.4l-6.5,3.8c-0.2,0.1-0.5,0-0.6-0.2c0-0.1-0.1-0.1-0.1-0.2v-7.5c0-0.1,0.1-0.3,0.2-0.4l6.5-3.8
	c0.2-0.1,0.5,0,0.6,0.2c0,0.1,0.1,0.1,0.1,0.2C20.5,9.1,20.5,16.7,20.5,16.7z"/>
</svg>
