<?xml version="1.0" encoding="utf-8"?>
<!-- Generator: Adobe Illustrator 27.0.0, SVG Export Plug-In . SVG Version: 6.00 Build 0)  -->
<svg version="1.1" id="Layer_1" xmlns="http://www.w3.org/2000/svg" xmlns:xlink="http://www.w3.org/1999/xlink" x="0px" y="0px"
	 viewBox="0 0 24 24" style="enable-background:new 0 0 24 24;" xml:space="preserve">
<style type="text/css">
	.st0{fill:#FFFFFF;}
</style>
<path class="st0" d="M7.2,0C6.7,0,6.3,0.1,6,0.3C5.7,0.5,5.6,0.8,5.6,1.1v21.8c0,0.3,0.2,0.5,0.5,0.8C6.4,23.9,6.7,24,7.2,24
	c0.4,0,0.8-0.1,1.2-0.4c0.3-0.2,0.5-0.5,0.5-0.8V1.1c0-0.3-0.2-0.6-0.5-0.8C8.1,0.1,7.7,0,7.2,0z M16.7,8.7c-0.5,0-0.9,0.1-1.2,0.3
	l-4.4,2.8c-0.2,0.2-0.3,0.5-0.2,0.9c0,0.4,0.2,0.7,0.5,1.1c0.3,0.3,0.7,0.6,1.1,0.7c0.4,0.1,0.7,0,0.9-0.1l1.8-1.1v9.8
	c0,0.3,0.2,0.5,0.5,0.8c0.3,0.2,0.7,0.4,1.2,0.4c0.5,0,0.9-0.1,1.2-0.4c0.3-0.2,0.5-0.5,0.5-0.8V9.7c0-0.3-0.2-0.6-0.5-0.8
	C17.6,8.8,17.2,8.7,16.7,8.7z"/>
</svg>
