<?xml version="1.0" encoding="utf-8"?>
<!-- Generator: Adobe Illustrator 27.0.0, SVG Export Plug-In . SVG Version: 6.00 Build 0)  -->
<svg version="1.1" id="Layer_1" xmlns="http://www.w3.org/2000/svg" xmlns:xlink="http://www.w3.org/1999/xlink" x="0px" y="0px"
	 viewBox="0 0 800 800" style="enable-background:new 0 0 800 800;" xml:space="preserve">
<style type="text/css">
	.st0{fill:#FFFFFF;}
</style>
<g>
	<path class="st0" d="M225.6,171.9c124.6,0,225.6,101.7,225.6,227.2s-101,227.2-225.6,227.2S0,524.5,0,399.1S101,171.9,225.6,171.9z
		 M585.9,185.2c62.3,0,112.8,95.7,112.8,213.9h0c0,118.1-50.5,213.9-112.8,213.9s-112.8-95.8-112.8-213.9S523.6,185.2,585.9,185.2z
		 M760.3,207.5c21.9,0,39.7,85.8,39.7,191.6c0,105.8-17.8,191.6-39.7,191.6c-21.9,0-39.7-85.8-39.7-191.6S738.4,207.5,760.3,207.5z"
		/>
</g>
</svg>
