<?xml version="1.0" encoding="utf-8"?>
<!-- Generator: Adobe Illustrator 27.0.0, SVG Export Plug-In . SVG Version: 6.00 Build 0)  -->
<svg version="1.1" id="Layer_1" xmlns="http://www.w3.org/2000/svg" xmlns:xlink="http://www.w3.org/1999/xlink" x="0px" y="0px"
	 viewBox="0 0 24 24" style="enable-background:new 0 0 24 24;" xml:space="preserve">
<style type="text/css">
	.st0{fill:#FFFFFF;}
</style>
<path class="st0" d="M10.7,0C7.5,0,4.9,2.3,4.3,5.3C2,5.5,0.2,7.5,0.2,9.8c0,2.5,2,4.5,4.5,4.5h6.8c0.3,0,0.6-0.3,0.6-0.6
	s-0.3-0.6-0.6-0.6H4.8c-1.8,0-3.3-1.5-3.3-3.3C1.5,8,3,6.5,4.8,6.5c0.6,0,1.3,0.2,1.8,0.6c0.3,0.2,0.7,0.1,0.9-0.2
	C7.6,6.6,7.6,6.2,7.3,6C6.8,5.7,6.2,5.5,5.6,5.4C6.1,3,8.3,1.3,10.7,1.3c2.6,0,4.8,2,5.2,4.6c-0.2,0.1-0.3,0.2-0.5,0.3
	C15.1,6.3,15,6.7,15.2,7s0.6,0.4,0.9,0.2c0,0,0,0,0,0c0.6-0.4,1.2-0.6,1.9-0.6c1.6,0,2.9,1.1,3.2,2.6c0.1,0.3,0.4,0.6,0.7,0.5
	c0.3-0.1,0.6-0.4,0.5-0.7l0,0C22,6.8,20.2,5.3,18,5.3c-0.3,0-0.6,0-1,0.1C16.6,2.3,13.9,0,10.7,0z M15.9,10.6c-0.2,0-0.3,0-0.5,0.1
	c-0.1,0.1-0.2,0.2-0.3,0.3c-0.1,0.1-0.1,0.3-0.2,0.4c0,0.2-0.1,0.3-0.1,0.5c0,0.2,0,0.4,0.1,0.5c0,0.2,0.1,0.3,0.2,0.4
	c0.1,0.1,0.2,0.2,0.3,0.3c0.1,0.1,0.3,0.1,0.5,0.1c0.2,0,0.3,0,0.5-0.1c0.1-0.1,0.2-0.2,0.3-0.3c0.1-0.1,0.1-0.3,0.2-0.4
	c0-0.2,0.1-0.3,0.1-0.5c0-0.2,0-0.4-0.1-0.5c0-0.2-0.1-0.3-0.2-0.4c-0.1-0.1-0.2-0.2-0.3-0.3C16.2,10.7,16.1,10.6,15.9,10.6z
	 M22.4,10.6c-0.2,0-0.3,0-0.5,0.1c-0.1,0.1-0.2,0.2-0.3,0.3c-0.1,0.1-0.1,0.3-0.2,0.4c0,0.2-0.1,0.3-0.1,0.5c0,0.2,0,0.4,0.1,0.5
	c0,0.2,0.1,0.3,0.2,0.4c0.1,0.1,0.2,0.2,0.3,0.3c0.1,0.1,0.3,0.1,0.5,0.1c0.2,0,0.3,0,0.5-0.1c0.1-0.1,0.2-0.2,0.3-0.3
	c0.1-0.1,0.1-0.3,0.2-0.4c0-0.2,0.1-0.3,0.1-0.5c0-0.2,0-0.4-0.1-0.5c0-0.2-0.1-0.3-0.2-0.4c-0.1-0.1-0.2-0.2-0.3-0.3
	C22.7,10.7,22.5,10.6,22.4,10.6z M13.8,10.7L13,11.3l0.3,0.4l0.5-0.4v1.9h0.6v-2.6H13.8z M20.3,10.7l-0.8,0.6l0.3,0.4l0.5-0.4v1.9
	h0.6v-2.6H20.3z M15.9,11.2c0.1,0,0.1,0,0.2,0.1c0,0.1,0.1,0.1,0.1,0.2c0,0.1,0,0.2,0.1,0.3c0,0.2,0,0.4,0,0.5c0,0.1,0,0.2-0.1,0.3
	c0,0.1-0.1,0.1-0.1,0.2c0,0.1-0.1,0.1-0.2,0.1c-0.1,0-0.1,0-0.2-0.1c-0.1-0.1-0.1-0.1-0.1-0.2c0-0.1,0-0.2-0.1-0.3
	c0-0.2,0-0.4,0-0.5c0-0.1,0-0.2,0.1-0.3c0-0.1,0.1-0.1,0.1-0.2C15.8,11.2,15.8,11.2,15.9,11.2z M22.4,11.2c0.1,0,0.1,0,0.2,0.1
	c0,0.1,0.1,0.1,0.1,0.2s0,0.2,0.1,0.3c0,0.2,0,0.4,0,0.5c0,0.1,0,0.2-0.1,0.3c0,0.1-0.1,0.1-0.1,0.2c0,0.1-0.1,0.1-0.2,0.1
	c-0.1,0-0.1,0-0.2-0.1c-0.1-0.1-0.1-0.1-0.1-0.2c0-0.1,0-0.2-0.1-0.3c0-0.2,0-0.4,0-0.5c0-0.1,0-0.2,0.1-0.3c0-0.1,0.1-0.1,0.1-0.2
	C22.2,11.2,22.3,11.2,22.4,11.2z M20.2,14.7c-0.2,0-0.3,0-0.5,0.1c-0.1,0.1-0.2,0.2-0.3,0.3c-0.1,0.1-0.1,0.3-0.2,0.4
	c0,0.2-0.1,0.3-0.1,0.5c0,0.2,0,0.4,0.1,0.5c0,0.2,0.1,0.3,0.2,0.4c0.1,0.1,0.2,0.2,0.3,0.3c0.1,0.1,0.3,0.1,0.5,0.1
	c0.2,0,0.3,0,0.5-0.1c0.1-0.1,0.2-0.2,0.3-0.3c0.1-0.1,0.1-0.3,0.2-0.4c0-0.2,0.1-0.3,0.1-0.5c0-0.2,0-0.4-0.1-0.5
	c0-0.2-0.1-0.3-0.2-0.4c-0.1-0.1-0.2-0.2-0.3-0.3C20.5,14.7,20.4,14.7,20.2,14.7L20.2,14.7z M13.8,14.7l-0.8,0.6l0.3,0.4l0.5-0.4
	v1.9h0.6v-2.6L13.8,14.7z M15.9,14.7l-0.8,0.6l0.3,0.4l0.5-0.4v1.9h0.6v-2.6L15.9,14.7z M18,14.7l-0.8,0.6l0.3,0.4l0.5-0.4v1.9h0.6
	v-2.6L18,14.7z M20.2,15.2c0.1,0,0.1,0,0.2,0.1c0.1,0.1,0.1,0.1,0.1,0.2c0,0.1,0,0.2,0.1,0.3c0,0.2,0,0.4,0,0.5c0,0.1,0,0.2-0.1,0.3
	c0,0.1-0.1,0.1-0.1,0.2c0,0.1-0.1,0.1-0.2,0.1c-0.1,0-0.1,0-0.2-0.1c-0.1-0.1-0.1-0.1-0.1-0.2c0-0.1,0-0.2-0.1-0.3
	c0-0.2,0-0.4,0-0.5c0-0.1,0-0.2,0.1-0.3c0-0.1,0.1-0.1,0.1-0.2C20,15.2,20.1,15.2,20.2,15.2L20.2,15.2z M13.5,18.2
	c-0.1,0-0.2,0-0.3,0.1c-0.1,0.1-0.2,0.1-0.2,0.2c-0.1,0.1-0.1,0.2-0.1,0.3c0,0.1,0,0.2,0,0.4s0,0.3,0,0.4c0,0.1,0.1,0.2,0.1,0.3
	c0.1,0.1,0.1,0.2,0.2,0.2c0.1,0.1,0.2,0.1,0.3,0.1c0.1,0,0.2,0,0.3-0.1c0.1-0.1,0.2-0.1,0.2-0.2c0.1-0.1,0.1-0.2,0.1-0.3
	c0-0.1,0-0.2,0-0.4c0-0.1,0-0.3,0-0.4c0-0.1-0.1-0.2-0.1-0.3c-0.1-0.1-0.1-0.2-0.2-0.2C13.7,18.3,13.6,18.2,13.5,18.2L13.5,18.2z
	 M16.5,18.2c-0.1,0-0.2,0-0.3,0.1c-0.1,0.1-0.2,0.1-0.2,0.2c-0.1,0.1-0.1,0.2-0.1,0.3c0,0.1,0,0.2,0,0.4c0,0.1,0,0.3,0,0.4
	c0,0.1,0.1,0.2,0.1,0.3c0.1,0.1,0.1,0.2,0.2,0.2c0.1,0.1,0.2,0.1,0.3,0.1c0.1,0,0.2,0,0.3-0.1c0.1-0.1,0.2-0.1,0.2-0.2
	c0.1-0.1,0.1-0.2,0.1-0.3c0.1-0.2,0.1-0.5,0-0.7c0-0.1-0.1-0.2-0.1-0.3c-0.1-0.1-0.1-0.2-0.2-0.2C16.8,18.3,16.7,18.2,16.5,18.2
	L16.5,18.2z M21.7,18.2c-0.1,0-0.2,0-0.3,0.1c-0.1,0.1-0.2,0.1-0.2,0.2C21,18.6,21,18.7,21,18.8c0,0.1,0,0.2,0,0.4s0,0.3,0,0.4
	c0,0.1,0.1,0.2,0.1,0.3c0.1,0.1,0.1,0.2,0.2,0.2c0.1,0.1,0.2,0.1,0.3,0.1c0.1,0,0.2,0,0.3-0.1c0.1-0.1,0.2-0.1,0.2-0.2
	c0.1-0.1,0.1-0.2,0.1-0.3c0-0.1,0-0.2,0-0.4c0-0.1,0-0.3,0-0.4c0-0.1-0.1-0.2-0.1-0.3c-0.1-0.1-0.1-0.2-0.2-0.2
	C21.9,18.3,21.8,18.2,21.7,18.2L21.7,18.2z M15,18.3l-0.6,0.4l0.2,0.3l0.3-0.3v1.4h0.4v-1.9L15,18.3z M18.1,18.3l-0.6,0.4l0.2,0.3
	l0.3-0.3v1.4h0.4v-1.9L18.1,18.3z M23.2,18.3l-0.6,0.4l0.2,0.3l0.3-0.3v1.4h0.4v-1.9L23.2,18.3z M13.5,18.6c0.1,0,0.1,0,0.1,0.1
	c0,0,0.1,0.1,0.1,0.2c0,0.1,0,0.1,0,0.2c0,0.1,0,0.3,0,0.4c0,0.1,0,0.1,0,0.2c0,0.1,0,0.1-0.1,0.2c0,0-0.1,0.1-0.1,0.1
	c-0.1,0-0.1,0-0.1-0.1c0,0-0.1-0.1-0.1-0.2c0-0.1,0-0.1,0-0.2c0-0.1,0-0.3,0-0.4c0-0.1,0-0.1,0-0.2c0-0.1,0-0.1,0.1-0.2
	C13.4,18.6,13.4,18.6,13.5,18.6z M16.5,18.6c0.1,0,0.1,0,0.1,0.1c0,0,0.1,0.1,0.1,0.2c0,0.1,0,0.1,0,0.2c0,0.1,0,0.3,0,0.4
	c0,0.1,0,0.1,0,0.2c0,0.1,0,0.1-0.1,0.2c0,0-0.1,0.1-0.1,0.1c-0.1,0-0.1,0-0.1-0.1c0,0-0.1-0.1-0.1-0.2c0-0.1,0-0.1,0-0.2
	c0-0.1,0-0.1,0-0.2c0-0.1,0-0.1,0-0.2c0-0.1,0-0.1,0-0.2c0-0.1,0-0.1,0.1-0.2C16.4,18.6,16.5,18.6,16.5,18.6z M21.7,18.6
	c0.1,0,0.1,0,0.1,0.1c0,0,0.1,0.1,0.1,0.2c0,0.1,0,0.1,0,0.2c0,0.1,0,0.3,0,0.4c0,0.1,0,0.1,0,0.2c0,0.1,0,0.1-0.1,0.2
	c0,0-0.1,0.1-0.1,0.1c-0.1,0-0.1,0-0.1-0.1c0,0-0.1-0.1-0.1-0.2c0-0.1,0-0.1,0-0.2c0-0.1,0-0.1,0-0.2c0-0.1,0-0.1,0-0.2
	c0-0.1,0-0.1,0-0.2c0-0.1,0-0.1,0.1-0.2C21.5,18.6,21.6,18.6,21.7,18.6z M20,20.4c-0.1,0-0.2,0-0.3,0.1c-0.1,0.1-0.2,0.1-0.2,0.2
	c-0.1,0.1-0.1,0.2-0.1,0.3c-0.1,0.2-0.1,0.5,0,0.7c0,0.1,0.1,0.2,0.1,0.3c0.1,0.1,0.1,0.2,0.2,0.2c0.1,0.1,0.2,0.1,0.3,0.1
	c0.1,0,0.2,0,0.3-0.1c0.1-0.1,0.2-0.1,0.2-0.2c0.1-0.1,0.1-0.2,0.1-0.3c0.1-0.2,0.1-0.5,0-0.7c0-0.1-0.1-0.2-0.1-0.3
	c-0.1-0.1-0.1-0.2-0.2-0.2C20.2,20.5,20.1,20.4,20,20.4z M23,20.4c-0.1,0-0.2,0-0.3,0.1c-0.1,0.1-0.2,0.1-0.2,0.2
	c-0.1,0.1-0.1,0.2-0.1,0.3c-0.1,0.2-0.1,0.5,0,0.7c0,0.1,0.1,0.2,0.1,0.3c0.1,0.1,0.1,0.2,0.2,0.2c0.1,0.1,0.2,0.1,0.3,0.1
	c0.1,0,0.2,0,0.3-0.1c0.1-0.1,0.2-0.1,0.2-0.2c0.1-0.1,0.1-0.2,0.1-0.3c0.1-0.2,0.1-0.5,0-0.7c0-0.1-0.1-0.2-0.1-0.3
	c-0.1-0.1-0.1-0.2-0.2-0.2C23.3,20.5,23.2,20.4,23,20.4z M21.5,20.5l-0.6,0.4l0.2,0.3l0.3-0.3v1.4h0.4v-1.9L21.5,20.5z M20,20.8
	c0.1,0,0.1,0,0.1,0.1c0,0,0.1,0.1,0.1,0.2c0,0.1,0,0.1,0,0.2c0,0.1,0,0.3,0,0.4c0,0.1,0,0.1,0,0.2c0,0.1,0,0.1-0.1,0.2
	c0,0-0.1,0.1-0.1,0.1c-0.1,0-0.1,0-0.1-0.1c0,0-0.1-0.1-0.1-0.2c0-0.1,0-0.1,0-0.2c0-0.1,0-0.1,0-0.2c0-0.1,0-0.1,0-0.2
	c0-0.1,0-0.1,0-0.2c0-0.1,0-0.1,0.1-0.2C19.9,20.8,19.9,20.8,20,20.8z M23,20.8c0.1,0,0.1,0,0.1,0.1c0,0,0.1,0.1,0.1,0.2
	c0,0.1,0,0.1,0,0.2c0,0.1,0,0.3,0,0.4c0,0.1,0,0.1,0,0.2c0,0.1,0,0.1-0.1,0.2c0,0-0.1,0.1-0.1,0.1c-0.1,0-0.1,0-0.1-0.1
	c0,0-0.1-0.1-0.1-0.2c0-0.1,0-0.1,0-0.2c0-0.1,0-0.3,0-0.4c0-0.1,0-0.1,0-0.2c0-0.1,0-0.1,0.1-0.2C22.9,20.8,23,20.8,23,20.8z
	 M13.3,21c-0.1,0-0.2,0-0.2,0.1c-0.1,0-0.1,0.1-0.2,0.1c0,0.1-0.1,0.1-0.1,0.2c0,0.1,0,0.2,0,0.3c0,0.1,0,0.2,0,0.3
	c0,0.1,0,0.1,0.1,0.2c0,0.1,0.1,0.1,0.2,0.1c0.1,0,0.2,0.1,0.2,0.1c0.1,0,0.2,0,0.2-0.1c0.1,0,0.1-0.1,0.2-0.1
	c0-0.1,0.1-0.1,0.1-0.2c0-0.2,0-0.3,0-0.5c0-0.1,0-0.1-0.1-0.2c0-0.1-0.1-0.1-0.2-0.1C13.5,21,13.4,21,13.3,21L13.3,21z M14.4,21
	L14,21.3l0.2,0.2l0.2-0.2v0.9h0.3V21H14.4z M13.3,21.3C13.4,21.3,13.4,21.3,13.3,21.3c0.1,0.1,0.1,0.1,0.2,0.1c0,0,0,0.1,0,0.1
	c0,0,0,0.1,0,0.1c0,0,0,0.1,0,0.1c0,0,0,0.1,0,0.1c0,0,0,0.1-0.1,0.1c0,0-0.1,0-0.1,0c0,0-0.1,0-0.1,0c0,0,0-0.1-0.1-0.1
	c0,0,0-0.1,0-0.1c0-0.1,0-0.2,0-0.3c0,0,0-0.1,0-0.1C13.2,21.4,13.2,21.3,13.3,21.3C13.2,21.3,13.3,21.3,13.3,21.3z M17.1,22.6
	c-0.1,0-0.2,0-0.2,0.1c-0.1,0-0.1,0.1-0.2,0.1c0,0.1-0.1,0.1-0.1,0.2c0,0.2,0,0.3,0,0.5c0,0.1,0,0.2,0.1,0.2c0,0.1,0.1,0.1,0.2,0.1
	c0.1,0,0.2,0.1,0.2,0.1c0.1,0,0.2,0,0.2-0.1c0.1,0,0.1-0.1,0.2-0.1c0-0.1,0.1-0.1,0.1-0.2c0-0.2,0-0.3,0-0.5c0-0.1,0-0.1-0.1-0.2
	c0-0.1-0.1-0.1-0.2-0.1C17.3,22.7,17.2,22.6,17.1,22.6z M18.1,22.7L17.7,23l0.2,0.2l0.2-0.2V24h0.3v-1.3H18.1z M17.1,22.9
	C17.1,22.9,17.2,22.9,17.1,22.9c0.1,0.1,0.1,0.1,0.2,0.1c0,0,0,0.1,0,0.1c0,0.1,0,0.2,0,0.3c0,0,0,0.1,0,0.1c0,0,0,0.1-0.1,0.1
	c0,0-0.1,0-0.1,0c0,0-0.1,0-0.1,0c0,0,0-0.1-0.1-0.1c0,0,0-0.1,0-0.1c0-0.1,0-0.2,0-0.3c0,0,0-0.1,0-0.1C17,23,17,23,17.1,22.9
	C17,22.9,17.1,22.9,17.1,22.9z"/>
</svg>
