<?xml version="1.0" encoding="utf-8"?>
<!-- Generator: Adobe Illustrator 27.0.0, SVG Export Plug-In . SVG Version: 6.00 Build 0)  -->
<svg version="1.1" id="Layer_1" xmlns="http://www.w3.org/2000/svg" xmlns:xlink="http://www.w3.org/1999/xlink" x="0px" y="0px"
	 viewBox="0 0 800 800" style="enable-background:new 0 0 800 800;" xml:space="preserve">
<style type="text/css">
	.st0{fill:#FFFFFF;}
</style>
<g>
	<g>
		<path class="st0" d="M400,0C179.1,0,0,179.1,0,400s179.1,400,400,400s400-179.1,400-400S620.9,0,400,0z M269.1,65
			c-39,42.4-69.8,103.3-88.7,175H77.7C117.5,160.5,185.7,97.7,269.1,65z M40,400c0-42.2,7.9-82.4,21.3-120h110.1
			c-7.2,38-11.5,78.1-11.5,120s4.3,82,11.5,120H61.3C47.9,482.4,40,442.2,40,400z M77.7,560h102.7c18.9,71.7,49.7,132.6,88.7,175
			C185.7,702.3,117.5,639.5,77.7,560z M380,758.1c-68.5-12.9-127.9-91-158.4-198.1H380V758.1z M380,520H212.1
			c-7.7-37.8-12.1-78.1-12.1-120s4.4-82.2,12.1-120H380V520z M380,240H221.6C252.1,132.9,311.5,54.8,380,41.9V240z M722.3,240H619.6
			c-18.9-71.7-49.7-132.6-88.7-175C614.3,97.7,682.5,160.5,722.3,240z M420,41.9c68.5,12.9,127.9,91,158.4,198.1H420V41.9z M420,280
			h167.9c7.7,37.8,12.1,78.1,12.1,120s-4.4,82.2-12.1,120H420V280z M420,758.1V560h158.4C547.9,667.1,488.5,745.2,420,758.1z
			 M530.9,735c39-42.4,69.8-103.3,88.7-175h102.7C682.5,639.5,614.3,702.3,530.9,735z M628.5,520c7.2-38,11.5-78.1,11.5-120
			s-4.3-82-11.5-120h110.1c13.4,37.6,21.3,77.8,21.3,120c0,42.2-7.9,82.4-21.3,120H628.5z"/>
	</g>
</g>
</svg>
