<?xml version="1.0" encoding="utf-8"?>
<!-- Generator: Adobe Illustrator 27.0.0, SVG Export Plug-In . SVG Version: 6.00 Build 0)  -->
<svg version="1.1" id="Layer_1" xmlns="http://www.w3.org/2000/svg" xmlns:xlink="http://www.w3.org/1999/xlink" x="0px" y="0px"
	 viewBox="0 0 24 24" style="enable-background:new 0 0 24 24;" xml:space="preserve">
<style type="text/css">
	.st0{fill:#FFFFFF;}
</style>
<path class="st0" d="M23.5,6.2c-0.3-1-1.1-1.9-2.1-2.1C19.5,3.5,12,3.5,12,3.5s-7.5,0-9.4,0.5c-1,0.3-1.8,1.1-2.1,2.1
	C0,8.1,0,12,0,12s0,3.9,0.5,5.8c0.3,1,1.1,1.9,2.1,2.1c1.9,0.5,9.4,0.5,9.4,0.5s7.5,0,9.4-0.5c1-0.3,1.8-1.1,2.1-2.1
	C24,15.9,24,12,24,12S24,8.1,23.5,6.2z M9.5,15.6V8.4l6.3,3.6L9.5,15.6z"/>
</svg>
